<?xml version="1.0" encoding="UTF-8"?>
<svg enable-background="new 0 0 64 64" version="1.1" viewBox="0 0 64 64" xmlns="http://www.w3.org/2000/svg"><path d="m27.391 21.567c0.034-0.014 0.84-0.351 1.249 0.147 0.197 0.241 0.484 0.365 0.773 0.365 0.223 0 0.448-0.075 0.634-0.228 0.427-0.351 0.488-0.98 0.138-1.407-1.106-1.347-2.846-1.05-3.609-0.704-0.5 0.226-0.719 0.81-0.498 1.312 0.22 0.504 0.81 0.731 1.313 0.515z"/><path d="m34.587 22.08c0.289 0 0.576-0.125 0.773-0.365 0.405-0.493 1.195-0.17 1.248-0.147 0.499 0.222 1.089-3e-3 1.315-0.502 0.228-0.503 4e-3 -1.096-0.499-1.323-0.764-0.346-2.503-0.643-3.609 0.704-0.351 0.427-0.289 1.057 0.138 1.407 0.186 0.151 0.411 0.226 0.634 0.226z"/><path d="m28.506 29.278c-0.391 0.391-0.391 1.023 0 1.414 0.963 0.963 2.229 1.445 3.494 1.445s2.531-0.482 3.494-1.445c0.391-0.391 0.391-1.023 0-1.414s-1.023-0.391-1.414 0c-1.146 1.146-3.014 1.146-4.16 0-0.391-0.391-1.024-0.391-1.414 0z"/><path d="m55.75 30.32c-1.08-0.72-2.43-0.86-3.63-0.36l-6.46 2.66c-1.19-0.89-2.67-1.38-4.4-1.47 0.41-0.97 0.64-2.04 0.67-3.15 0.06 0.01 0.11 0.01 0.17 0.01 1.13 0 2.99-0.46 3.61-3.34 1.75-0.78 3.64-2.06 3.86-3.95 0.17-1.58-0.86-3.16-3.08-4.7-0.15-0.09-0.26-0.19-0.36-0.31-0.17-0.18-0.3-0.45-0.39-0.78l-1.07-4.67c-0.58-3.42-6.22-5.01-10.85-5.74-1.19-0.18-2.45-0.18-3.65 0-4.62 0.73-10.26 2.32-10.82 5.68l-1.08 4.69c-0.08 0.27-0.19 0.64-0.29 0.77-0.01 0.01-0.02 0.03-0.03 0.04-0.05 0.06-0.19 0.16-0.44 0.33-2.22 1.53-3.25 3.11-3.07 4.69 0.21 1.9 2.1 3.17 3.85 3.95 0.62 2.88 2.48 3.34 3.6 3.34 0.07 0 0.12 0 0.18-0.01 0.03 1.11 0.26 2.18 0.67 3.15-1.73 0.09-3.21 0.58-4.4 1.47l-6.46-2.66c-1.2-0.5-2.55-0.36-3.63 0.36-1.07 0.72-1.71 1.92-1.71 3.22v6.65c0 1.34 0.67 2.56 1.8 3.27 0.63 0.4 1.35 0.6 2.06 0.6 0.57 0 1.14-0.12 1.68-0.38l2.98-1.42c0.05 0.6 0.1 0.99 0.12 1.07-0.83 0.98-1.38 2.22-1.55 3.58l-0.54 4.31c-0.15 1.24 0.45 2.48 1.54 3.15 5.68 3.46 11.53 5.23 17.37 5.25 5.84-0.02 11.69-1.79 17.38-5.26 1.08-0.66 1.68-1.9 1.52-3.15l-0.53-4.3c-0.17-1.36-0.72-2.6-1.55-3.58 0.02-0.14 0.08-0.51 0.12-1.07l2.98 1.42c0.54 0.26 1.11 0.38 1.68 0.38 0.71 0 1.43-0.2 2.06-0.6 1.13-0.71 1.8-1.93 1.8-3.27v-6.65c0-1.3-0.64-2.5-1.71-3.22zm-10.51 4.64c1.69 1.99 1.8 5.13 1.71 6.87-0.03-0.02-0.06-0.04-0.09-0.05 0 0-7.77-3.9-8.33-4.19-0.5-0.3-0.97-1.03-1.35-2.03 1.14-0.6 2.13-1.43 2.91-2.44h0.58c2.02 0 3.52 0.61 4.57 1.84zm-12.12-0.4h-2.24c-3.76 0-6.83-3.07-6.83-6.83v-8.5c1.83-0.97 8.58-3.96 15.9 0v8.5c0 3.76-3.07 6.83-6.83 6.83zm3.54 4.04c-0.1 0.47-1.69 1.29-4.66 1.29-2.96 0-4.55-0.81-4.65-1.29 0.61-0.66 1.04-1.51 1.34-2.33 0.7 0.18 1.44 0.29 2.19 0.29h2.24c0.75 0 1.49-0.11 2.19-0.29 0.31 0.82 0.75 1.67 1.35 2.33zm7.17-14.76c-0.32 2.21-1.31 2.22-1.88 2.17v-3.83l0.26-0.13c0.82-0.41 1.33-0.41 1.46-0.32 0.02 0.02 0.42 0.33 0.16 2.11zm-21.78 2.17c-0.55 0.05-1.56 0.06-1.88-2.17-0.26-1.78 0.14-2.09 0.16-2.11 0.13-0.1 0.63-0.09 1.45 0.31l0.27 0.14v3.83zm0.48-8.22c-0.3 0.19-0.48 0.51-0.48 0.85v1.34c-1.45-0.54-2.37-0.25-2.9 0.14-0.62 0.45-0.97 1.19-1.04 2.21-1.01-0.59-1.62-1.24-1.68-1.83-0.09-0.77 0.7-1.78 2.29-2.88 0.22-0.15 0.42-0.3 0.6-0.48 8.08-4.95 17.84-4.93 25.5 0.07 0.17 0.16 0.33 0.32 0.53 0.46 1.52 1.05 2.31 2.06 2.23 2.82-0.07 0.6-0.68 1.24-1.69 1.84-0.08-1.02-0.42-1.76-1.04-2.21-0.53-0.39-1.44-0.68-2.9-0.14v-1.34c0-0.35-0.19-0.68-0.5-0.86-9.65-5.62-18.55-0.22-18.92 0.01zm-3.77 17.17c1.05-1.23 2.55-1.84 4.57-1.84h0.58c0.78 1.01 1.77 1.84 2.91 2.44-0.36 0.98-0.84 1.72-1.35 2.03-0.55 0.28-8.33 4.19-8.33 4.19-0.03 0.01-0.06 0.03-0.09 0.05-0.09-1.73 0.01-4.88 1.71-6.87zm0.01 19.38c-1.04-0.51-2.07-1.05-3.1-1.68-0.42-0.26-0.65-0.72-0.59-1.2l0.53-4.3c0.2-1.57 1.12-2.94 2.42-3.59 0.53-0.27 1.02-0.52 1.49-0.75-0.93 2.86-0.86 8.57-0.75 11.52zm19.91 2.08-0.12 0.37c-2.18 0.54-4.37 0.82-6.56 0.83-2.18-0.01-4.38-0.29-6.56-0.83l-0.13-0.4c-1.73-4.88-0.48-12.36 0.14-15.34 0.14-0.63 0.23-1 0.23-1.01 0.02-0.09 0.02-0.17 0.02-0.26 0.33 0.52 0.94 1.06 2.05 1.47 1.14 0.41 2.65 0.64 4.25 0.64 2.49 0 5.31-0.57 6.3-2.09 0 0.08 0 0.16 0.02 0.24 0 0.01 0.09 0.38 0.23 1 0.62 2.99 1.87 10.47 0.13 15.38zm10.24-4.96c0.06 0.48-0.17 0.94-0.59 1.2-1.03 0.62-2.06 1.17-3.1 1.68 0.11-2.95 0.18-8.69-0.75-11.52 0.47 0.23 0.96 0.48 1.49 0.74 1.3 0.66 2.22 2.03 2.42 3.6l0.53 4.3z"/><path d="m37.56 24.21c0 0.73-0.6 1.33-1.33 1.33s-1.32-0.6-1.32-1.33 0.59-1.32 1.32-1.32 1.33 0.59 1.33 1.32z"/><path d="m29.09 24.21c0 0.73-0.59 1.33-1.32 1.33s-1.33-0.6-1.33-1.33 0.6-1.32 1.33-1.32 1.32 0.59 1.32 1.32z"/></svg>
