<svg xmlns="http://www.w3.org/2000/svg" version="1.1" x="0px" y="0px" viewBox="0 0 100 100"><g transform="translate(0,-952.36218)"><g transform="translate(4.9985278,985.3526)"><path d="m 43.26378,1.6299214 c 3.153543,-1.16929144 6.342519,-0.77952763 8.645669,1.0275591 2.161417,1.7007876 3.437008,4.4291343 4.181102,7.5472445 5.173229,-0.3543305 10.523622,1.948819 14.527559,5.598426 3.543307,-0.425197 6.236221,-0.673228 8.893701,0 2.905512,0.744094 5.598425,2.409449 9.708661,5.527559 0.673229,0.496063 0.956693,1.48819 0.673229,2.30315 -0.318898,0.779528 -1.169292,1.346457 -2.019685,1.275591 -2.338583,-0.141732 -4.641733,-0.318898 -6.980315,-0.496063 -1.098425,0 -2.090551,0.850394 -3.543307,2.232284 -1.452756,1.381889 -3.401575,3.295275 -6.34252,3.295275 -3.188976,0 -8.149606,-0.850393 -11.622047,-1.877953 -4.996063,3.401576 -10.027559,5.669292 -15.200788,5.917324 -4.818897,0.248031 -9.566929,-1.488189 -13.96063,-5.244095 -3.188976,3.720473 -7.228346,5.350394 -10.948818,4.216536 C 15.34252,31.783467 12.259843,28.027561 10.523622,22.7126 7.4055118,22.074805 4.2874016,21.082679 2.1614173,18.956695 0.92125984,17.75197 0,15.944883 0,13.854332 0.03543307,8.9291346 2.3740157,4.9251973 7.015748,4.6771657 c 3.153543,-0.1417322 6.236221,1.3110238 8.822835,3.4370082 2.232283,-2.6574805 4.5,-4.5354334 7.192913,-4.818898 2.480315,-0.2480315 4.96063,0.8503937 7.547244,2.409449 1.098425,-3.6141735 3.437008,-4.99606342 6.448819,-5.63385875 2.19685,-0.28346459 4.606299,0.56692918 6.236221,1.55905525 z m -6.80315,2.7283467 c -1.594488,0.8503938 -2.480315,2.1259844 -2.444882,4.5000004 0.956693,8.1850405 6.34252,14.1023635 12.011811,14.1023635 4.889764,-0.106299 8.716535,-4.889764 13.003937,-4.996064 4.03937,-0.07087 6.838583,2.940946 9.956693,3.011812 3.57874,-0.566929 7.299213,-0.850394 10.452756,-0.956693 -3.153543,-1.098426 -6.80315,-0.425197 -9.177165,-0.141733 -0.602363,0.07087 -1.240158,-0.141732 -1.665355,-0.566929 -3.082677,-3.082677 -7.795275,-5.208662 -11.692913,-5.244095 -0.318898,2.161418 -1.629921,3.968505 -3.259843,5.06693 -1.948819,1.275591 -4.287401,1.84252 -6.625984,1.84252 -3.295276,0 -6.023622,-1.913386 -7.086614,-4.464568 -0.566929,-1.27559 -0.673228,-2.799212 -0.106299,-4.216535 1.133858,-2.055119 2.374015,-3.0472447 4.216535,-3.3661424 0.92126,0 1.807087,0.7086615 1.984252,1.6299214 0.177165,0.92126 -0.389764,1.913386 -1.27559,2.232284 -0.850394,0.35433 -1.133859,0.744094 -1.240158,1.027559 -0.106299,0.283464 -0.106299,0.602362 0.106299,1.098425 0.389764,0.92126 1.700788,2.055118 3.401575,2.055118 1.665354,0 3.295276,-0.46063 4.358268,-1.204724 0.956693,-0.602362 1.488189,-1.275591 1.594488,-2.338583 C 53.185039,11.090552 51.555118,7.5472447 49.464567,5.8110241 47.976378,4.6771657 46.38189,4.3582681 43.901575,5.5984257 43.228346,5.9527564 42.34252,5.8818903 41.775591,5.3858272 39.968504,4.0039373 38.444882,3.6850397 36.46063,4.3582681 z M 23.456693,7.2992132 c -1.665354,0.1771654 -3.437008,1.3818899 -5.811024,4.7125988 -0.673228,0.956693 -2.232283,1.062992 -3.047244,0.248032 C 12.401575,10.062993 9.1771654,8.5748039 7.1929134,8.6811031 4.3937008,9.0000008 4.003937,11.940946 4.003937,13.854332 c 0,0.992126 0.3188976,1.629921 0.9566929,2.30315 2.0905512,1.73622 4.5,2.338583 7.2283461,2.799213 0.814961,0.07087 1.523622,0.673228 1.736221,1.452756 1.417323,5.137795 4.074803,8.007874 6.519685,8.716536 2.338583,0.708661 4.925197,-0.141733 7.547244,-3.791339 -0.07087,-1.736221 -0.318898,-3.720473 -0.850394,-5.173229 -0.425197,-1.240158 -1.133858,-1.913386 -2.125984,-2.196851 -1.346457,0 -2.125984,0.56693 -2.692913,1.452756 -0.566929,0.850394 -0.708662,2.019686 -0.425197,2.905513 0.354331,0.992126 -0.248032,2.19685 -1.240158,2.551181 -1.027559,0.318897 -2.232283,-0.283465 -2.551181,-1.275591 -0.708661,-2.125984 -0.35433,-4.464567 0.850394,-6.34252 1.169291,-1.877953 3.366142,-3.295276 6.059055,-3.295276 3.047244,0.248032 4.889764,2.232284 5.88189,4.783465 0.744094,2.055118 1.027559,4.322835 1.062992,6.307087 4.003937,3.791339 7.901575,5.173229 12.011811,4.960631 4.322835,-0.212599 9,-2.267717 13.889764,-5.704725 0.496063,-0.354331 1.169291,-0.46063 1.771653,-0.283465 2.657481,0.92126 8.787402,1.913386 11.374016,1.913386 0.956693,0 1.84252,-0.602362 2.976378,-1.629921 -1.771654,0.177165 -3.437008,0.389763 -4.96063,0.673228 -3.685039,0.212598 -6.874016,-2.976378 -9.992126,-3.011811 -4.606299,0.177165 -8.220472,5.066929 -13.003937,5.031496 C 37.913386,27.000002 31.5,19.381891 30.11811,9.9921268 27.992126,8.6102369 26.007874,7.192914 23.456693,7.2992132 z" style="" fill="#000000" fill-opacity="1" fill-rule="nonzero" stroke="none"/></g></g></svg>