<svg xmlns="http://www.w3.org/2000/svg" version="1.1" x="0px" y="0px" viewBox="0 0 64 64" style="enable-background:new 0 0 64 64;" xml:space="preserve"><g><path d="M63,21.586c0-2.328-1.75-4.235-4-4.527V12c0-6.065-4.935-11-11-11H16C9.935,1,5,5.935,5,12v5c0,1.103,0.897,2,2,2v8H6.586   L1,32.586v5.828l4,4V58c0,2.757,2.243,5,5,5h44c2.757,0,5-2.243,5-5V43c0-1.103-0.897-2-2-2v-3.386c1.18-0.588,2-1.794,2-3.2   c0-0.526-0.213-1.042-0.586-1.414l-3-3l7-7C62.792,22.622,63,22.12,63,21.586z M50,24.586l-3-3C46.622,21.208,46.12,21,45.586,21   c-1.447,0-2.689,0.865-3.255,2.102c-1.684-0.243-3.448-0.011-4.974,0.666C35.894,22.09,33.593,21,31,21   c-1.552,0-3.033,0.388-4.307,1.102c-0.385-1.193-1.119-2.258-2.105-3.102h30.998L50,24.586z M57,43v4H44.816   c-0.133-0.374-0.335-0.711-0.596-1c0.48-0.532,0.78-1.229,0.78-2c0-0.352-0.072-0.686-0.184-1H57z M43,48c0,0.552-0.449,1-1,1   s-1-0.448-1-1s0.449-1,1-1S43,47.448,43,48z M37.116,51.22C36.77,51.081,36.395,51,36,51c-0.771,0-1.468,0.301-2,0.78   c-0.532-0.48-1.229-0.78-2-0.78s-1.468,0.301-2,0.78c-0.532-0.48-1.229-0.78-2-0.78c-0.395,0-0.77,0.081-1.116,0.22   c-0.278-1.025-1.08-1.827-2.105-2.105c0.015-0.037,0.022-0.078,0.036-0.116h14.369c0.014,0.038,0.021,0.079,0.036,0.116   C38.196,49.394,37.394,50.195,37.116,51.22z M37,54c0,0.552-0.449,1-1,1s-1-0.448-1-1s0.449-1,1-1S37,53.448,37,54z M33,54   c0,0.552-0.449,1-1,1s-1-0.448-1-1s0.449-1,1-1S33,53.448,33,54z M7,47v-4h12.184C19.072,43.314,19,43.648,19,44   c0,0.771,0.301,1.468,0.78,2c-0.261,0.289-0.463,0.626-0.596,1H7z M19,19c3.309,0,6,2.243,6,5s-2.691,5-6,5s-6-2.243-6-5   S15.691,19,19,19z M7,17v-2h16v2H7z M41,15h16v2H41V15z M39,17h-6v-4h2v-2h-6v2h2v4h-6V9h14V17z M26.981,24.322   C28.088,23.48,29.489,23,31,23c3.309,0,6,2.243,6,5s-2.691,5-6,5c-3.039,0-5.61-1.951-5.956-4.427   C26.183,27.421,26.896,25.944,26.981,24.322z M43,44c0,0.552-0.449,1-1,1s-1-0.448-1-1s0.449-1,1-1S43,43.448,43,44z M24.816,47   c-0.133-0.374-0.335-0.711-0.596-1c0.48-0.532,0.78-1.229,0.78-2c0-0.352-0.072-0.686-0.184-1h14.369   C39.072,43.314,39,43.648,39,44c0,0.771,0.301,1.468,0.78,2c-0.261,0.289-0.463,0.626-0.596,1H24.816z M12.414,41L9,37.586V35   h2.586L15,38.414V41H12.414z M29,35c0.128,0,0.252,0.015,0.376,0.029c-0.598,0.518-1.099,1.12-1.488,1.78   C27.34,36.604,27,36.273,27,36C27,35.592,27.779,35,29,35z M27,40c0,0.408-0.779,1-2,1s-2-0.592-2-1s0.779-1,2-1S27,39.592,27,40z    M16.343,36.929L13,33.586v-3.34l6.788,6.109L16.343,36.929z M17,38.847l4-0.667V41h-4V38.847z M21,44c0-0.552,0.449-1,1-1   s1,0.448,1,1s-0.449,1-1,1S21,44.552,21,44z M33,40c0-0.408,0.779-1,2-1s2,0.592,2,1s-0.779,1-2,1S33,40.408,33,40z M40.865,41   h-2.102C38.907,40.687,39,40.354,39,40c0-1.683-1.757-3-4-3s-4,1.317-4,3c0,0.354,0.093,0.687,0.237,1h-2.102   C29.054,40.672,29,40.339,29,40c0-2.757,2.691-5,6-5s6,2.243,6,5C41,40.339,40.946,40.672,40.865,41z M36.438,33.119   c0.699-0.569,1.281-1.244,1.712-1.998C38.419,31.049,38.702,31,39,31c0.946,0,1.622,0.356,1.88,0.706l-2.12,2.12   C38.045,33.49,37.263,33.251,36.438,33.119z M19,31c1.584,0,3.057-0.41,4.301-1.107c0.5,1.579,1.605,2.922,3.089,3.834   C25.541,34.273,25,35.076,25,36c0,0.358,0.082,0.7,0.229,1.017C25.151,37.014,25.079,37,25,37c-0.738,0-1.413,0.154-2,0.404v-0.85   l-6.603-5.943C17.214,30.859,18.088,31,19,31z M11,33H8.847L8.18,29H11V33z M6.784,32.784l-2.703-0.45l2.252-2.252L6.784,32.784z    M7,34.847V37H3v-2.82L7,34.847z M7.586,39l2,2H6.414l-2-2H7.586z M22,47c0.551,0,1,0.448,1,1s-0.449,1-1,1s-1-0.448-1-1   S21.449,47,22,47z M24,51c0.551,0,1,0.448,1,1s-0.449,1-1,1s-1-0.448-1-1S23.449,51,24,51z M28,53c0.551,0,1,0.448,1,1   s-0.449,1-1,1s-1-0.448-1-1S27.449,53,28,53z M40,51c0.551,0,1,0.448,1,1s-0.449,1-1,1s-1-0.448-1-1S39.449,51,40,51z M43,40   c0-0.408,0.779-1,2-1s2,0.592,2,1s-0.779,1-2,1S43,40.408,43,40z M47.129,37.456C46.515,37.171,45.791,37,45,37   c-0.217,0-0.425,0.023-0.632,0.046L49,32.414L50.586,34L47.129,37.456z M41.987,36.599c-0.399-0.625-0.906-1.188-1.495-1.676   L46,29.414L47.586,31L41.987,36.599z M42.299,30.287C41.584,29.505,40.386,29,39,29c-0.031,0-0.061,0.008-0.093,0.008   C38.962,28.678,39,28.343,39,28c0-0.888-0.197-1.734-0.544-2.516c1.124-0.437,2.397-0.581,3.613-0.401   c0.088,0.343,0.259,0.66,0.516,0.917l2,2L42.299,30.287z M16,3h32c4.962,0,9,4.038,9,9v1H41V9c0-1.103-0.897-2-2-2H25   c-1.103,0-2,0.897-2,2v4H7v-1C7,7.038,11.038,3,16,3z M9,19h4.412C11.926,20.272,11,22.042,11,24c0,1.075,0.286,2.089,0.783,3H9V19   z M7,58v-1c2.206,0,4,1.794,4,4h-1C8.346,61,7,59.654,7,58z M7,55v-6h12.184c0.328,0.919,1.086,1.627,2.036,1.884   C21.081,51.23,21,51.605,21,52c0,1.654,1.346,3,3,3c0.395,0,0.77-0.081,1.116-0.22C25.461,56.055,26.617,57,28,57   c0.771,0,1.468-0.301,2-0.78c0.532,0.48,1.229,0.78,2,0.78s1.468-0.301,2-0.78c0.532,0.48,1.229,0.78,2,0.78   c1.383,0,2.539-0.945,2.884-2.22C39.23,54.919,39.605,55,40,55c1.654,0,3-1.346,3-3c0-0.395-0.081-0.77-0.22-1.116   c0.95-0.258,1.708-0.965,2.036-1.884H57v6c-3.309,0-6,2.691-6,6H13C13,57.691,10.309,55,7,55z M57,58c0,1.654-1.346,3-3,3h-1   c0-2.206,1.794-4,4-4V58z M48.763,41C48.907,40.687,49,40.354,49,40c0-0.444-0.129-0.86-0.351-1.236l3.35-3.35l2,2   c0.278,0.278,0.624,0.462,1,0.541V41H48.763z M55.414,36L44,24.586C44,23.711,44.711,23,45.586,23L57,34.414   C57,35.288,56.289,36,55.414,36z M51.414,26L56,21.414L58.586,24L54,28.586L51.414,26z M60,22.586L57.414,20l1-1   C59.84,19,61,20.16,61,21.586L60,22.586z"/><path d="M31,31c2.243,0,4-1.318,4-3s-1.757-3-4-3s-4,1.318-4,3S28.757,31,31,31z M31,27c1.221,0,2,0.592,2,1s-0.779,1-2,1   s-2-0.592-2-1S29.779,27,31,27z"/><path d="M19,27c2.243,0,4-1.318,4-3s-1.757-3-4-3s-4,1.318-4,3S16.757,27,19,27z M19,23c1.221,0,2,0.592,2,1s-0.779,1-2,1   s-2-0.592-2-1S17.779,23,19,23z"/></g></svg>