<svg xmlns="http://www.w3.org/2000/svg" viewBox="0 0 64 64" x="0px" y="0px"><title>24</title><g data-name="01"><path d="M35.1,23.4c-2.89-2-7,0-7.64,3.35-.24,1.25,1.69,1.79,1.93.53.57-3,4.59-3.69,5.76-.72,1.47,3.76-3.64,4.86-6.21,5a196.38,196.38,0,0,1-22.76,0c-1.28-.07-1.28,1.93,0,2q7.94.45,15.87.29c2.44,0,4.89-.11,7.33-.28a10.49,10.49,0,0,0,5.82-1.77A5.15,5.15,0,0,0,35.1,23.4Z"/><path d="M28.37,36.9c-2.21-.14-4.5.14-6.71.22l-14.49.56c-1.28,0-1.29,2,0,2L24.7,39a21.18,21.18,0,0,1,3.9-.08A1.88,1.88,0,0,1,30,41.53a3.86,3.86,0,0,1-2.75,2.16,8.34,8.34,0,0,1-2.23.24,4.94,4.94,0,0,1-.94,0,1.33,1.33,0,0,1-.63-.25c-.35-.11-.4-.36-.14-.75,1.28.08,1.28-1.92,0-2a2.23,2.23,0,0,0-2.06,3.28c.87,1.69,2.93,1.86,4.61,1.75,3.24-.22,7.28-2.55,6.07-6.41A3.8,3.8,0,0,0,28.37,36.9Z"/><path d="M57.33,22a4.84,4.84,0,0,0-6.44.12,3.73,3.73,0,0,0-1,3.53,3.53,3.53,0,0,0,2.45,2.5,1,1,0,0,0,.53-1.93c-1.4-.37-1.31-2.13-.33-2.91,1.28-1,3.05-.35,4.06.72A5.35,5.35,0,0,1,58,28.52c-.39,1.53-2,1.85-3.42,1.93-2.33.13-4.69.07-7,.1a1,1,0,0,0,0,2l4.33,0a31.86,31.86,0,0,0,3.52-.13,6.09,6.09,0,0,0,3-1A4.27,4.27,0,0,0,60.1,28.2,7.51,7.51,0,0,0,57.33,22Z"/><path d="M38.12,32.12a1,1,0,0,0,1,1l4.18-.27a1,1,0,0,0,0-2l-4.18.27A1,1,0,0,0,38.12,32.12Z"/><path d="M57,35.73h-5a1,1,0,0,0-1,1,1,1,0,0,0,1,1h5a1,1,0,0,0,0-2Z"/><path d="M42.73,46.82a6.25,6.25,0,0,0,4.53-3.9,4.61,4.61,0,0,0-1.65-5.47,6.75,6.75,0,0,0-3.79-.7l-4.07,0a1,1,0,0,0,0,2c1.83,0,3.68-.07,5.51.06a2.36,2.36,0,0,1,1.78.8,2.43,2.43,0,0,1,.53,1.6c0,3-3.6,4.59-6,3.32-.41-.22-1.34-.71-1.16-1.3s1.42-.82,2-.93a1,1,0,0,0,.7-1.23,1,1,0,0,0-1.23-.7A4.54,4.54,0,0,0,37,41.74,2.51,2.51,0,0,0,37,45,6.05,6.05,0,0,0,42.73,46.82Z"/><path d="M15.83,43.38l-4.68,0a1,1,0,1,0,0,2l4.68,0a1,1,0,0,0,0-2Z"/><path d="M22,24a1.12,1.12,0,0,0,1-1.15A11.65,11.65,0,0,0,19,14.61a11.65,11.65,0,0,0-8.93-2.72,1.29,1.29,0,0,0-.71.32,1.06,1.06,0,0,0-.5,1.13A12.69,12.69,0,0,0,22,24Zm-5.43-8.78-1.65,0a.51.51,0,0,0-.5.5.5.5,0,0,0,.5.5l2.79.05a.8.8,0,0,0,.15,0,9.61,9.61,0,0,1,2,2.63L18,18.45a.5.5,0,0,0-.62.34.51.51,0,0,0,.35.62l2.65.62a9.83,9.83,0,0,1,.49,2,10.7,10.7,0,0,1-6.43-2.5A10.93,10.93,0,0,1,11,13.82,9.78,9.78,0,0,1,16.52,15.26Z"/><path d="M39.65,18.3a.89.89,0,0,0,1.18-.65,1.12,1.12,0,0,0,.55-.62A9.34,9.34,0,0,0,37,5.7a.94.94,0,0,0-.83,0,1.12,1.12,0,0,0-.77.47,8.08,8.08,0,0,0-.89,7.34A8.22,8.22,0,0,0,39.65,18.3Zm-1-8.46-1-.12a.53.53,0,0,0-.36.15.52.52,0,0,0-.14.35.52.52,0,0,0,.14.36l.11.07a.43.43,0,0,0,.25.07l1.44.18s.06,0,.09,0a7.26,7.26,0,0,1,.58,2L39,12.54a.48.48,0,0,0-.39.05.55.55,0,0,0-.23.29.53.53,0,0,0,.05.39.57.57,0,0,0,.3.23L39.9,14a7.06,7.06,0,0,1-.34,2.16,6.1,6.1,0,0,1-3.16-3.35,6.15,6.15,0,0,1,.32-4.92A7.53,7.53,0,0,1,38.68,9.84Z"/><path d="M55,46.34a1,1,0,0,0-.46-.09A14.65,14.65,0,0,0,41,58.39a1.07,1.07,0,0,0,.42,1.09,1.29,1.29,0,0,0,.74.35A12.15,12.15,0,0,0,55.63,47.24,1,1,0,0,0,55,46.34Zm-4.14,8.43-2.07-1a.5.5,0,0,0-.68.18.51.51,0,0,0,.17.68l1.81.9a10.09,10.09,0,0,1-1.63,1.13l-2.49-1.31a.5.5,0,0,0-.5.87l1.84,1a10.76,10.76,0,0,1-4.17.73,12.64,12.64,0,0,1,10.52-9.54,10.41,10.41,0,0,1-1.09,4l-1.78-1a.5.5,0,0,0-.68.18.5.5,0,0,0,.18.68l1.79,1A9.72,9.72,0,0,1,50.81,54.77Z"/></g></svg>